<svg xmlns="http://www.w3.org/2000/svg" version="1.1" xmlns:xlink="http://www.w3.org/1999/xlink" viewBox="0 0 200 200"><rect width="200" height="200" fill="url('#gradient')"></rect><defs><linearGradient id="gradient" gradientTransform="rotate(45 0.5 0.5)"><stop offset="0%" stop-color="#cf6126"></stop><stop offset="100%" stop-color="#445272"></stop></linearGradient></defs><g><g fill="#445272" transform="matrix(2.036460059661916,0,0,2.036460059661916,8.962904921501021,115.07214779612005)" stroke="#c8512e" stroke-width="0.2"><path d="M5.39-2.34L5.39-2.34Q6.08-2.34 6.46-2.72Q6.85-3.10 6.84-3.77L6.84-3.77L9.92-3.77Q9.92-2.03 8.68-0.92Q7.43 0.20 5.47 0.20L5.47 0.20Q3.16 0.20 1.84-1.25Q0.51-2.70 0.51-5.25L0.51-5.25L0.51-5.39Q0.51-6.99 1.10-8.22Q1.69-9.44 2.80-10.10Q3.92-10.76 5.44-10.76L5.44-10.76Q7.50-10.76 8.71-9.62Q9.92-8.48 9.92-6.52L9.92-6.52L6.84-6.52Q6.84-7.34 6.44-7.78Q6.04-8.22 5.36-8.22L5.36-8.22Q4.08-8.22 3.87-6.59L3.87-6.59Q3.80-6.07 3.80-5.17L3.80-5.17Q3.80-3.57 4.18-2.96Q4.56-2.34 5.39-2.34ZM14.53-15L14.53-9.43Q15.59-10.76 17.23-10.76L17.23-10.76Q18.97-10.76 19.86-9.73Q20.75-8.69 20.77-6.67L20.77-6.67L20.77 0L17.47 0L17.47-6.59Q17.47-7.43 17.13-7.83Q16.79-8.22 15.97-8.22L15.97-8.22Q14.95-8.22 14.53-7.58L14.53-7.58L14.53 0L11.24 0L11.24-15L14.53-15ZM31.85 0L28.55 0Q28.38-0.32 28.24-0.95L28.24-0.95Q27.33 0.20 25.70 0.20L25.70 0.20Q24.21 0.20 23.16-0.71Q22.12-1.61 22.12-2.98L22.12-2.98Q22.12-4.70 23.39-5.58Q24.66-6.46 27.08-6.46L27.08-6.46L28.10-6.46L28.10-7.01Q28.10-8.47 26.84-8.47L26.84-8.47Q25.66-8.47 25.66-7.31L25.66-7.31L22.37-7.31Q22.37-8.85 23.68-9.80Q24.98-10.76 27.00-10.76Q29.02-10.76 30.20-9.78Q31.37-8.79 31.40-7.07L31.40-7.07L31.40-2.39Q31.42-0.94 31.85-0.17L31.85-0.17L31.85 0ZM26.49-2.15L26.49-2.15Q27.11-2.15 27.51-2.41Q27.92-2.68 28.10-3.01L28.10-3.01L28.10-4.70L27.14-4.70Q25.42-4.70 25.42-3.15L25.42-3.15Q25.42-2.71 25.72-2.43Q26.03-2.15 26.49-2.15ZM33.24-10.57L36.33-10.57L36.44-9.33Q37.56-10.76 39.45-10.76L39.45-10.76Q41.46-10.76 42.16-9.17L42.16-9.17Q43.23-10.76 45.26-10.76L45.26-10.76Q48.48-10.76 48.56-6.88L48.56-6.88L48.56 0L45.26 0L45.26-6.67Q45.26-7.48 44.99-7.85Q44.72-8.22 43.99-8.22L43.99-8.22Q43.02-8.22 42.54-7.35L42.54-7.35L42.55-7.22L42.55 0L39.25 0L39.25-6.65Q39.25-7.48 38.98-7.85Q38.72-8.22 37.98-8.22L37.98-8.22Q37.03-8.22 36.53-7.35L36.53-7.35L36.53 0L33.24 0L33.24-10.57ZM60.25-5.36L60.25-5.20Q60.25-2.60 59.18-1.20Q58.11 0.20 56.15 0.20L56.15 0.20Q54.54 0.20 53.55-1.08L53.55-1.08L53.42 0L50.47 0L50.47-15L53.76-15L53.76-9.72Q54.68-10.76 56.13-10.76L56.13-10.76Q58.11-10.76 59.18-9.35Q60.25-7.93 60.25-5.36L60.25-5.36ZM56.95-5.40L56.95-5.40Q56.95-6.92 56.55-7.57Q56.14-8.22 55.30-8.22L55.30-8.22Q54.19-8.22 53.76-7.37L53.76-7.37L53.76-3.17Q54.18-2.33 55.32-2.33L55.32-2.33Q56.48-2.33 56.80-3.47L56.80-3.47Q56.95-4.02 56.95-5.40ZM66.82 0.20L66.82 0.20Q64.38 0.20 62.88-1.25Q61.38-2.71 61.38-5.03L61.38-5.03L61.38-5.30Q61.38-6.92 61.98-8.16Q62.58-9.40 63.73-10.08Q64.88-10.76 66.46-10.76L66.46-10.76Q68.69-10.76 69.98-9.38Q71.27-8.00 71.27-5.53L71.27-5.53L71.27-4.25L64.73-4.25Q64.90-3.36 65.50-2.85Q66.09-2.34 67.04-2.34L67.04-2.34Q68.60-2.34 69.48-3.44L69.48-3.44L70.99-1.66Q70.37-0.81 69.24-0.31Q68.12 0.20 66.82 0.20ZM66.45-8.22L66.45-8.22Q65-8.22 64.73-6.31L64.73-6.31L68.05-6.31L68.05-6.56Q68.07-7.35 67.65-7.79Q67.23-8.22 66.45-8.22ZM79.04-10.64L78.98-7.59L77.90-7.67Q76.35-7.67 75.91-6.69L75.91-6.69L75.91 0L72.62 0L72.62-10.57L75.70-10.57L75.81-9.21Q76.64-10.76 78.13-10.76L78.13-10.76Q78.65-10.76 79.04-10.64L79.04-10.64ZM85.70-2.97L85.70-2.97Q85.70-3.39 85.26-3.64Q84.82-3.90 83.59-4.17Q82.36-4.44 81.56-4.89Q80.76-5.33 80.34-5.97Q79.92-6.60 79.92-7.42L79.92-7.42Q79.92-8.88 81.12-9.82Q82.32-10.76 84.27-10.76L84.27-10.76Q86.36-10.76 87.63-9.81Q88.90-8.87 88.90-7.32L88.90-7.32L85.60-7.32Q85.60-8.59 84.26-8.59L84.26-8.59Q83.74-8.59 83.39-8.31Q83.04-8.02 83.04-7.59L83.04-7.59Q83.04-7.15 83.47-6.88Q83.90-6.60 84.84-6.43Q85.78-6.25 86.49-6.01L86.49-6.01Q88.88-5.19 88.88-3.07L88.88-3.07Q88.88-1.62 87.59-0.71Q86.31 0.20 84.27 0.20L84.27 0.20Q82.91 0.20 81.85-0.29Q80.78-0.78 80.19-1.62Q79.59-2.46 79.59-3.39L79.59-3.39L82.67-3.39Q82.69-2.66 83.15-2.32Q83.62-1.98 84.36-1.98L84.36-1.98Q85.03-1.98 85.37-2.26Q85.70-2.53 85.70-2.97Z"></path></g></g></svg>